<svg xmlns="http://www.w3.org/2000/svg" xmlns:xlink="http://www.w3.org/1999/xlink" version="1.1" id="Your_Icon" x="0px" y="0px" width="100px" height="100px" viewBox="0 0 100 100" enable-background="new 0 0 100 100" xml:space="preserve">
<polygon points="51.937,86 47.44,86 45.203,71 54.173,71 "/>
<path d="M50,4.484c29.319,0,33.94,8.914,33.94,8.914c2.223,11.235,3.344,45.427-4.691,59.44C73.45,82.953,60.607,92.17,50.395,95.48  c-0.078,0.023-0.222,0.035-0.37,0.035c-0.17,0-0.347-0.015-0.439-0.044c-10.209-3.313-23.042-12.524-28.834-22.633  c-8.035-14.014-6.914-48.205-4.692-59.44C16.06,13.398,20.687,4.484,50,4.484 M50,0C19.508,0,13.061,9.439,12.08,11.331L11.784,11.9  l-0.124,0.628c-2.165,10.949-3.845,46.761,5.201,62.541c6.701,11.69,20.837,21.258,31.341,24.668  c0.546,0.176,1.156,0.263,1.823,0.263c0.637,0,1.199-0.078,1.72-0.242c10.539-3.419,24.687-12.986,31.396-24.688  c9.044-15.78,7.362-51.592,5.199-62.541l-0.126-0.625l-0.292-0.569C86.939,9.439,80.501,0,50,0L50,0z"/>
<path d="M68.005,54.602L64.26,59h-9.092l-1.994-3h-6.476l-1.994,3h-9.092l-3.746-4.398C31.113,53.723,29.569,53,28.413,53h-2.146  l6.146,10.189C33.011,64.177,34.433,65,35.589,65h9.016c1.156,0,2.613-0.47,3.255-1.431l2.076-2.964l2.076,2.887  C52.654,64.453,54.11,65,55.267,65h9.017c1.155,0,2.577-0.823,3.177-1.811L73.605,53H71.46C70.304,53,68.759,53.723,68.005,54.602z"/>
<ellipse cx="63.142" cy="38.898" rx="7.475" ry="2.99"/>
<ellipse cx="36.234" cy="38.899" rx="7.475" ry="2.99"/>
<path d="M59.153,29.06c9.469-4.672,14.914-3.57,20.432,0.683c-1.656-9.261-16.195-10.837-22.797-4.857  c-0.922,0.835-2.928,3.24-1.322,4.762C56.196,30.344,58.269,29.491,59.153,29.06z"/>
<path d="M40.24,29.06c0.882,0.432,2.955,1.284,3.688,0.587c1.603-1.521-0.4-3.927-1.322-4.762  C36,18.905,21.464,20.481,19.809,29.742C25.324,25.489,30.769,24.388,40.24,29.06z"/>
</svg>