<?xml version="1.0" encoding="UTF-8" standalone="no"?>
<svg
   xmlns:dc="http://purl.org/dc/elements/1.1/"
   xmlns:cc="http://creativecommons.org/ns#"
   xmlns:rdf="http://www.w3.org/1999/02/22-rdf-syntax-ns#"
   xmlns:svg="http://www.w3.org/2000/svg"
   xmlns="http://www.w3.org/2000/svg"
   xmlns:sodipodi="http://sodipodi.sourceforge.net/DTD/sodipodi-0.dtd"
   xmlns:inkscape="http://www.inkscape.org/namespaces/inkscape"
   version="1.1"
   id="incognito_man_-_outline"
   x="0px"
   y="0px"
   width="100px"
   height="100px"
   viewBox="5.0 -10.0 100.0 135.0"
   enable-background="new 0 0 100 100"
   xml:space="preserve"
   inkscape:version="0.48.4 r9939"
   sodipodi:docname="incognito.svg"><metadata
     id="metadata3348"><rdf:RDF><cc:Work
         rdf:about=""><dc:format>image/svg+xml</dc:format><dc:type
           rdf:resource="http://purl.org/dc/dcmitype/StillImage" /></cc:Work></rdf:RDF></metadata><defs
     id="defs3346" /><sodipodi:namedview
     pagecolor="#ffffff"
     bordercolor="#666666"
     borderopacity="1"
     objecttolerance="10"
     gridtolerance="10"
     guidetolerance="10"
     inkscape:pageopacity="0"
     inkscape:pageshadow="2"
     inkscape:window-width="1912"
     inkscape:window-height="1032"
     id="namedview3344"
     showgrid="false"
     inkscape:zoom="2.36"
     inkscape:cx="-24.576271"
     inkscape:cy="50"
     inkscape:window-x="0"
     inkscape:window-y="40"
     inkscape:window-maximized="0"
     inkscape:current-layer="incognito_man_-_outline" /><path
     d="m 1.7005313,103.70109 c -0.20742,0 -0.4072976,-0.16468 -0.5568914,-0.30924 -0.16090768,-0.15714 -0.24890408,-0.41484 -0.24261858,-0.6386 0.022628,-0.81711 0.58580448,-20.069464 4.56324088,-25.27885 2.587094,-3.389118 7.4281528,-5.835418 9.4822398,-6.765665 L -1.2058637,49.096822 c -0.1734786,-0.233819 -0.2086772,-0.544321 -0.087996,-0.809567 0.1194237,-0.265246 0.37335612,-0.447525 0.66248712,-0.471409 L 14.646057,46.548698 C 11.522185,44.214279 5.7810492,39.304081 6.8395202,35.441039 c 1.367716,-4.994424 6.3382538,-6.506704 10.7242458,-7.839221 2.682633,-0.815852 5.215672,-1.585192 6.144662,-3.011991 1.116297,-1.718444 1.435598,-5.2207 1.743586,-8.607304 0.477694,-5.240813 0.970474,-10.6588768 4.372163,-12.1095598 1.137668,-0.48398 2.555667,-0.73037 4.215027,-0.73037 4.641181,0 10.699104,1.913293 15.566561,3.450716 3.09873,0.979274 5.776335,1.825296 7.457066,2.010088 0.357014,0.03897 0.736655,0.06034 1.126354,0.06034 1.855466,0 3.773788,-0.431182 5.801476,-0.890021 2.046544,-0.460095 4.162229,-0.936533 6.230144,-0.936533 2.1006,0 3.894469,0.494037 5.484689,1.509767 2.487784,1.585192 2.926509,6.0440948 3.351406,10.3559178 0.340672,3.440659 0.688886,6.99697 2.039002,8.060469 0.984302,0.773111 2.700232,1.053443 4.517986,1.350116 3.126386,0.509122 7.01834,1.143953 9.233335,4.705293 1.73227,2.784457 2.23511,5.42812 1.49468,7.85682 -0.60214,1.974891 -1.91581,3.425574 -3.09873,4.389763 l 13.113977,0.261475 c 0.30421,0.005 0.57826,0.183535 0.70774,0.458838 0.13074,0.275303 0.0918,0.599633 -0.0968,0.83848 L 90.69128,67.066941 c 3.115073,0.334387 10.11958,1.773756 14.8651,7.908362 3.97367,5.136475 4.92151,20.9092 4.95923,21.57923 0.0138,0.21245 -0.0591,0.41861 -0.20114,0.577 -0.13954,0.1584 -0.34067,0.34068 -0.5506,0.34947 L 1.7470437,103.70109 c -0.016342,0 -0.03017,0 -0.046512,0 z M 0.93999112,49.291671 16.83591,70.55537 c 0.149594,0.19862 0.196106,0.456324 0.12948,0.697685 -0.06662,0.237591 -0.242618,0.43244 -0.473923,0.524207 -0.06663,0.0264 -6.7556078,2.715318 -9.7550278,6.647499 -3.216897,4.21377 -4.04532,19.620682 -4.2037135,23.459839 L 108.86379,95.849303 C 108.6174,92.563267 107.4835,80.08035 104.29175,75.954577 98.636093,68.648362 89.206655,68.56288 89.112373,68.56288 c -0.30673,0 -0.587062,-0.175993 -0.720313,-0.451296 -0.131995,-0.277817 -0.09554,-0.605918 0.09554,-0.847279 L 104.70659,46.891884 90.594484,46.612809 c -0.373357,-0.0075 -0.693915,-0.272789 -0.768083,-0.638602 -0.07417,-0.367071 0.115652,-0.735398 0.456324,-0.888764 0.03268,-0.0176 3.548768,-1.648046 4.529298,-4.88757 0.59712,-1.964834 0.1496,-4.164744 -1.32497,-6.536875 -1.831584,-2.942851 -5.033396,-3.465801 -8.130869,-3.971151 -2.027688,-0.330615 -3.942238,-0.641117 -5.25087,-1.671932 -1.885637,-1.483368 -2.253965,-5.2119 -2.643663,-9.160424 -0.368328,-3.748646 -0.786939,-7.9951 -2.618521,-9.1654518 -1.327489,-0.846023 -2.839769,-1.257092 -4.626096,-1.257092 -1.890665,0 -3.918354,0.456324 -5.878159,0.897563 -2.025174,0.455067 -4.122002,0.9264768 -6.154719,0.9264768 -0.446267,0 -0.884992,-0.02388 -1.299832,-0.06914 C 55.046456,9.9874552 52.300969,9.1200622 49.120528,8.1156462 44.357409,6.6109082 38.431481,4.7378422 34.035433,4.7378422 c -1.440627,0 -2.649949,0.203649 -3.587739,0.603404 -2.521725,1.074813 -2.991877,6.2326578 -3.40546,10.7833288 -0.341929,3.746132 -0.663744,7.283586 -1.995004,9.333902 -1.245777,1.915807 -4.050348,2.768115 -7.019597,3.671964 -4.1836,1.270919 -8.5117648,2.587094 -9.6456618,6.730467 -0.795739,2.902623 5.0711058,8.061726 8.9555178,10.632478 0.284103,0.187306 0.418612,0.536778 0.334387,0.864878 -0.08423,0.330615 -0.369585,0.57072 -0.709,0.598376 L 0.93999112,49.291671 z"
     id="path3332"
     inkscape:connector-curvature="0"
     style="stroke-width:2.7;stroke-miterlimit:4;stroke-dasharray:none;fill:#000000;fill-opacity:1;stroke:#000000;stroke-opacity:1" /><path
     d="m 56.274635,69.398846 c -7.936018,1.660617 -10.391117,-4.985624 -11.846829,-8.293031 -0.548091,-1.242007 -0.813338,-6.438822 0.539293,-6.313113 6.690239,0.619746 17.406942,-0.412326 21.888473,-1.126354 6.857433,-1.094926 -1.927121,13.919772 -10.580937,15.732498 z"
     id="path3334"
     inkscape:connector-curvature="0" /><path
     d="m 29.737438,65.353526 c 6.468992,2.592122 9.579035,-2.639892 11.263538,-5.249613 0.791967,-1.229435 1.744842,-5.454519 0.582033,-5.551315 -5.753707,-0.472667 -14.767051,-3.001934 -18.4541,-4.276625 -5.638054,-1.948491 -0.44501,12.252869 6.608529,15.077553 z"
     id="path3336"
     inkscape:connector-curvature="0" /><path
     d="m 27.962425,32.172602 c 7.214447,4.193656 28.331066,7.998872 45.320655,0.888763 7.082452,-2.962964 6.470248,0.560663 2.443785,2.443786 C 55.686316,44.881795 35.178129,39.5291 26.183641,34.6629 21.722224,32.24677 24.406114,30.107201 27.962425,32.172602 z"
     id="path3338"
     inkscape:connector-curvature="0" /></svg>