<?xml version="1.0" encoding="UTF-8" standalone="no"?>
<svg
   xmlns:dc="http://purl.org/dc/elements/1.1/"
   xmlns:cc="http://creativecommons.org/ns#"
   xmlns:rdf="http://www.w3.org/1999/02/22-rdf-syntax-ns#"
   xmlns:svg="http://www.w3.org/2000/svg"
   xmlns="http://www.w3.org/2000/svg"
   xmlns:sodipodi="http://sodipodi.sourceforge.net/DTD/sodipodi-0.dtd"
   xmlns:inkscape="http://www.inkscape.org/namespaces/inkscape"
   version="1.1"
   id="Layer_1"
   x="0px"
   y="0px"
   width="37.313332"
   height="72.651855"
   viewBox="5 -10 37.313332 98.080005"
   enable-background="new 0 0 100 100"
   xml:space="preserve"
   inkscape:version="0.48.4 r9939"
   sodipodi:docname="infographic.svg"><metadata
     id="metadata13"><rdf:RDF><cc:Work
         rdf:about=""><dc:format>image/svg+xml</dc:format><dc:type
           rdf:resource="http://purl.org/dc/dcmitype/StillImage" /></cc:Work></rdf:RDF></metadata><defs
     id="defs11" /><sodipodi:namedview
     pagecolor="#ffffff"
     bordercolor="#666666"
     borderopacity="1"
     objecttolerance="10"
     gridtolerance="10"
     guidetolerance="10"
     inkscape:pageopacity="0"
     inkscape:pageshadow="2"
     inkscape:window-width="640"
     inkscape:window-height="480"
     id="namedview9"
     showgrid="false"
     fit-margin-top="0"
     fit-margin-left="0"
     fit-margin-right="0"
     fit-margin-bottom="0"
     inkscape:zoom="2.36"
     inkscape:cx="22.360741"
     inkscape:cy="30.77037"
     inkscape:window-x="65"
     inkscape:window-y="24"
     inkscape:window-maximized="0"
     inkscape:current-layer="Layer_1" /><path
     clip-rule="evenodd"
     d="M -0.48728812,-10 V 88.08 H 49.885712 V -10 H -0.48728812 z M 45.446712,83.641 H 3.9517119 V -5.561 H 45.446712 V 83.641 z M 12.410712,9.455 H 7.9717119 V 28.5 H 12.410712 V 9.455 z m 5.713,6.061 h -4.439 V 28.5 h 4.439 V 15.516 z m 5.708,7.148 h -4.439 V 28.5 h 4.439 v -5.836 z m 1.273,2.72 v 3.123 h 4.439 v -3.123 h -4.439 z m 17.379,32.716 H 7.0917119 v 4.439 H 42.483712 V 58.1 z m -22.159,7.093 H 7.0917119 v 4.439 H 20.324712 v -4.439 z m -7.822,7.094 H 7.0917119 v 4.439 H 12.502712 V 72.287 z M 9.0047119,50.635 c 0,2.245 1.8250001,4.072 4.0680001,4.072 2.247,0 4.075,-1.827 4.075,-4.072 0,-2.246 -1.828,-4.073 -4.075,-4.073 -2.243,-10e-4 -4.0680001,1.827 -4.0680001,4.073 z m 4.0680001,-0.744 c 0.411,0 0.746,0.334 0.746,0.744 0,0.409 -0.334,0.743 -0.746,0.743 -0.407,0 -0.739,-0.334 -0.739,-0.743 0,-0.41 0.332,-0.744 0.739,-0.744 z m 9.818,-13.033 c -0.479,-0.11 -0.977,-0.176 -1.489,-0.176 -3.641,0 -6.603,2.964 -6.603,6.605 0,3.641 2.962,6.603 6.603,6.603 0.513,0 1.01,-0.064 1.49,-0.176 1.922,2.467 4.912,4.063 8.275,4.063 5.788,0 10.496,-4.706 10.496,-10.49 0,-5.787 -4.708,-10.496 -10.496,-10.496 -3.363,0.001 -6.354,1.599 -8.276,4.067 z m -1.694,9.683 c -1.708,-0.109 -3.068,-1.519 -3.068,-3.253 0,-1.735 1.36,-3.147 3.068,-3.255 -0.336,1.025 -0.523,2.118 -0.523,3.255 0,1.136 0.187,2.228 0.523,3.253 z m 9.971,-10.42 c 3.952,0 7.167,3.217 7.167,7.167 0,3.949 -3.215,7.161 -7.167,7.161 -2.088,0 -3.964,-0.903 -5.273,-2.331 1.299,-1.207 2.117,-2.922 2.117,-4.83 0,-1.907 -0.82,-3.624 -2.119,-4.832 1.311,-1.431 3.187,-2.335 5.275,-2.335 z m -6.96,5.496 c 0.295,0.491 0.474,1.059 0.474,1.671 0,0.612 -0.179,1.18 -0.474,1.67 -0.129,-0.537 -0.205,-1.094 -0.205,-1.67 0,-0.576 0.076,-1.134 0.205,-1.671 z m 9.245,-25.643 c 5.22,0 9.466,-4.246 9.466,-9.465 0,-5.22 -4.246,-9.466 -9.466,-9.466 -5.219,0 -9.465,4.246 -9.465,9.466 0,5.219 4.246,9.465 9.465,9.465 z m 1.665,-15.366 c 2.576,0.728 4.472,3.095 4.472,5.9 0,0.309 -0.03,0.609 -0.075,0.906 l -4.396,-1.982 V 0.608 z m -1.162,7.953 4.192,1.89 c -1.126,1.339 -2.812,2.193 -4.695,2.193 -0.828,0 -1.619,-0.167 -2.342,-0.467 l 2.845,-3.616 z m -2.167,-7.953 v 5.323 l -3.29,4.183 c -0.739,-1.014 -1.182,-2.258 -1.182,-3.605 0,-2.806 1.896,-5.173 4.472,-5.901 z"
     id="path3"
     inkscape:connector-curvature="0"
     style="fill:#000000;fill-rule:evenodd" /></svg>